<svg xmlns="http://www.w3.org/2000/svg" viewBox="0 0 760 460" font-family="Segoe UI, Helvetica, Arial, sans-serif" role="img" aria-label="Expected cost versus alert threshold">
<rect x="0" y="0" width="760" height="460" fill="#fcfcfb"/>
<line x1="84" y1="396.0" x2="732" y2="396.0" stroke="#e1e0d9" stroke-width="1"/>
<text x="74" y="400.0" text-anchor="end" font-size="12" fill="#898781">$0</text>
<line x1="84" y1="311.0" x2="732" y2="311.0" stroke="#e1e0d9" stroke-width="1"/>
<text x="74" y="315.0" text-anchor="end" font-size="12" fill="#898781">$25,000</text>
<line x1="84" y1="226.0" x2="732" y2="226.0" stroke="#e1e0d9" stroke-width="1"/>
<text x="74" y="230.0" text-anchor="end" font-size="12" fill="#898781">$50,000</text>
<line x1="84" y1="141.0" x2="732" y2="141.0" stroke="#e1e0d9" stroke-width="1"/>
<text x="74" y="145.0" text-anchor="end" font-size="12" fill="#898781">$75,000</text>
<line x1="84" y1="56.0" x2="732" y2="56.0" stroke="#e1e0d9" stroke-width="1"/>
<text x="74" y="60.0" text-anchor="end" font-size="12" fill="#898781">$100,000</text>
<line x1="84.0" y1="56" x2="84.0" y2="396" stroke="#e1e0d9" stroke-width="1"/>
<text x="84.0" y="416" text-anchor="middle" font-size="12" fill="#898781">1e-05</text>
<line x1="213.6" y1="56" x2="213.6" y2="396" stroke="#e1e0d9" stroke-width="1"/>
<text x="213.6" y="416" text-anchor="middle" font-size="12" fill="#898781">0.0001</text>
<line x1="343.2" y1="56" x2="343.2" y2="396" stroke="#e1e0d9" stroke-width="1"/>
<text x="343.2" y="416" text-anchor="middle" font-size="12" fill="#898781">0.001</text>
<line x1="472.8" y1="56" x2="472.8" y2="396" stroke="#e1e0d9" stroke-width="1"/>
<text x="472.8" y="416" text-anchor="middle" font-size="12" fill="#898781">0.01</text>
<line x1="602.4" y1="56" x2="602.4" y2="396" stroke="#e1e0d9" stroke-width="1"/>
<text x="602.4" y="416" text-anchor="middle" font-size="12" fill="#898781">0.1</text>
<line x1="732.0" y1="56" x2="732.0" y2="396" stroke="#e1e0d9" stroke-width="1"/>
<text x="732.0" y="416" text-anchor="middle" font-size="12" fill="#898781">1</text>
<line x1="84" y1="396" x2="732" y2="396" stroke="#c3c2b7" stroke-width="1.2"/>
<line x1="84" y1="56" x2="84" y2="396" stroke="#c3c2b7" stroke-width="1.2"/>
<polyline points="95.5,151.2 141.0,151.8 160.5,152.5 173.0,153.0 179.8,153.7 186.1,154.3 192.1,154.9 197.9,155.5 201.3,156.1 203.7,156.7 208.8,157.3 212.1,158.0 214.6,158.6 217.9,159.2 220.6,159.8 222.5,160.4 225.1,161.0 226.9,161.6 229.7,162.2 231.7,162.8 233.4,163.5 235.5,164.0 236.7,164.7 239.8,165.3 241.0,165.9 242.2,166.5 243.8,167.1 245.5,167.7 246.8,168.3 247.9,169.0 249.3,169.6 250.6,170.2 251.8,170.8 253.2,171.4 254.6,172.0 255.9,172.6 257.0,173.2 258.4,173.9 259.7,174.5 261.2,175.1 262.2,175.7 263.1,176.3 264.6,176.9 266.1,177.5 267.1,178.2 268.6,178.8 269.6,179.4 270.7,180.0 271.7,180.6 273.0,181.2 273.8,181.8 274.6,182.5 275.7,183.1 276.5,183.7 277.7,184.3 279.1,184.9 280.1,185.5 281.2,186.1 282.0,186.8 283.2,187.4 283.9,188.0 284.6,188.6 285.3,189.2 286.4,189.8 287.2,190.4 288.4,191.1 289.0,191.7 289.6,192.3 290.2,192.9 291.0,193.5 291.7,194.1 292.5,194.7 293.5,195.3 294.5,196.0 295.4,196.6 296.1,197.2 296.8,197.8 297.6,198.4 298.9,199.0 299.8,199.6 300.8,200.3 301.5,200.9 302.4,201.5 303.6,202.1 304.9,202.7 305.5,203.3 306.4,203.9 307.0,204.6 307.8,205.1 308.6,205.8 309.3,206.3 310.3,206.9 311.2,207.5 312.0,208.1 312.5,208.8 313.3,209.4 313.8,210.0 314.5,210.6 315.3,211.2 316.0,211.8 316.9,212.4 317.6,213.0 318.7,213.7 319.4,214.3 319.9,214.9 320.5,215.5 321.2,216.1 322.0,216.7 322.6,217.3 323.1,217.9 324.0,218.5 324.7,219.2 325.5,219.8 326.5,220.4 327.2,221.0 328.0,221.6 328.7,222.2 329.1,222.8 330.2,223.5 330.9,224.1 331.7,224.7 332.3,225.3 333.0,225.9 333.7,226.5 334.3,227.1 334.9,227.8 335.5,228.4 336.3,229.0 336.9,229.6 337.5,230.2 338.2,230.8 339.3,231.4 340.1,232.1 340.5,232.7 341.6,233.3 342.3,233.9 342.9,234.5 343.6,235.1 344.3,235.7 345.0,236.2 345.8,236.9 346.6,237.5 347.2,238.1 347.5,238.7 347.9,239.3 348.6,239.9 349.1,240.5 349.9,241.2 350.5,241.4 351.3,242.1 351.9,242.7 352.6,243.3 353.2,243.9 354.0,244.5 354.7,245.1 355.5,245.7 356.3,246.4 357.1,247.0 357.8,247.6 358.2,248.2 358.8,248.8 359.5,249.4 360.2,250.0 360.8,250.7 361.7,251.3 362.5,251.9 363.3,252.5 364.0,253.1 364.4,253.7 365.2,254.3 365.8,255.0 366.5,255.6 367.1,256.2 367.6,256.8 368.1,257.4 368.8,258.0 369.5,258.6 370.2,259.3 370.7,259.9 371.6,260.5 372.3,261.1 372.9,261.7 373.5,262.2 374.4,262.8 375.0,263.4 375.7,264.0 376.4,264.7 377.0,265.3 378.0,265.9 378.5,266.5 379.2,267.1 380.0,267.7 380.7,268.3 381.4,268.9 382.3,269.6 383.1,270.2 384.0,270.8 384.6,271.4 385.3,272.0 386.0,272.6 386.8,273.2 387.4,273.8 388.2,274.4 388.8,275.1 389.3,275.5 390.2,276.1 390.9,276.8 391.7,277.4 392.2,278.0 392.8,278.6 393.4,279.2 394.2,279.7 394.6,280.3 395.2,280.9 395.6,281.5 396.5,282.2 397.4,282.8 398.2,283.3 398.8,283.9 399.5,284.5 400.3,285.1 401.3,285.7 402.0,286.3 402.7,287.0 403.6,287.6 404.2,288.2 405.0,288.8 405.7,289.4 406.6,290.0 407.3,290.6 408.0,291.3 408.5,291.9 409.3,292.5 410.1,293.1 410.7,293.7 411.4,294.3 412.0,294.8 412.7,295.3 413.5,295.9 414.3,296.6 414.8,297.2 415.2,297.8 416.3,298.4 417.2,299.0 417.9,299.6 418.7,300.2 419.5,300.9 420.2,301.5 420.9,302.1 421.9,302.5 422.6,303.2 423.3,303.8 424.0,304.4 424.7,305.0 425.8,305.6 426.6,306.2 427.7,306.8 428.3,307.5 428.9,308.1 429.7,308.7 430.4,309.3 431.1,309.9 431.9,310.5 432.4,311.1 432.9,311.8 433.9,312.4 434.8,313.0 435.6,313.6 436.5,314.2 437.3,314.8 438.0,315.4 438.6,316.0 439.2,316.5 440.0,317.1 440.7,317.6 441.5,318.2 442.5,318.8 443.2,319.4 443.9,320.0 445.1,320.6 445.9,321.3 446.8,321.9 447.7,322.5 448.4,323.1 449.1,323.7 450.0,324.3 450.7,324.9 451.7,325.5 452.6,326.1 453.6,326.2 454.5,326.7 455.2,327.3 455.9,327.9 456.6,328.5 457.5,329.1 459.0,329.7 459.6,330.3 460.6,331.0 461.5,331.6 462.4,332.2 463.3,332.8 464.3,333.4 465.0,334.0 466.1,334.6 467.0,335.2 468.3,335.8 469.4,336.4 470.2,337.0 471.3,337.4 472.3,338.0 473.3,338.6 474.0,339.2 475.1,339.8 476.2,340.3 477.0,340.6 478.1,341.2 479.0,341.9 479.9,342.5 480.9,343.1 481.8,343.5 483.1,344.2 484.5,344.8 485.5,345.4 486.5,346.0 487.5,346.6 488.5,347.2 489.7,347.8 490.9,348.5 491.7,349.1 492.6,349.7 494.1,350.3 495.5,350.4 496.5,351.0 497.6,351.6 498.6,352.0 499.9,352.7 501.2,353.3 502.8,353.9 504.1,354.4 505.8,355.0 507.4,355.6 508.4,356.2 509.7,356.8 510.8,357.4 512.3,358.0 514.0,358.6 515.4,359.2 517.0,359.9 519.4,360.5 521.3,361.1 522.9,361.7 524.2,362.3 526.0,362.4 527.9,360.3 529.3,360.9 531.3,361.5 532.8,362.2 534.0,362.8 535.2,363.4 536.8,364.0 538.8,364.5 540.4,365.1 542.5,365.7 544.1,366.3 545.5,366.5 547.3,367.1 549.0,367.7 551.7,367.7 553.2,367.1 554.7,367.5 556.8,368.1 559.6,368.8 561.6,367.5 563.5,367.9 565.6,364.6 568.4,365.0 570.4,365.5 573.5,365.5 576.2,366.0 578.8,365.0 581.4,365.7 583.9,365.3 588.2,365.6 592.2,365.5 595.4,365.6 598.3,364.5 603.7,363.6 607.9,363.1 612.4,363.7 616.9,361.4 622.6,359.7 629.2,359.7 634.6,357.0 642.0,349.0 648.1,339.9 655.6,338.7 667.5,336.6 680.1,327.2 693.0,324.3 696.0,323.1 730.9,314.9" fill="none" stroke="#a06a00" stroke-width="2" stroke-linejoin="round" stroke-linecap="round"/>
<line x1="559.6" y1="56" x2="559.6" y2="396" stroke="#0b0b0b" stroke-width="1.2" stroke-dasharray="5 4"/>
<circle cx="559.6" cy="368.8" r="4.5" fill="#3fae63" stroke="#fcfcfb" stroke-width="1.5"/>
<text x="567.6" y="358.8" font-size="12.5" fill="#0b0b0b" font-weight="600">t* = 0.047</text>
<text x="567.6" y="374.8" font-size="11.5" fill="#52514e">val cost $8,011</text>
<line x1="693.0" y1="56" x2="693.0" y2="396" stroke="#898781" stroke-width="1.2" stroke-dasharray="5 4"/>
<circle cx="693.0" cy="324.3" r="4" fill="#898781" stroke="#fcfcfb" stroke-width="1.5"/>
<text x="685.0" y="316.3" font-size="11.5" fill="#52514e" text-anchor="end">naive 0.5</text>
<text x="84" y="26" font-size="15" fill="#0b0b0b" font-weight="700">Expected cost vs alert threshold (validation sweep)</text>
<text x="84" y="44" font-size="12" fill="#52514e">Cost-minimising t* = 0.047; assumptions: $8/review, missed fraud = its amount</text>
<text x="408.0" y="438" text-anchor="middle" font-size="12.5" fill="#52514e">Alert threshold on calibrated fraud probability (log scale)</text>
<text x="18" y="226.0" text-anchor="middle" font-size="12.5" fill="#52514e" transform="rotate(-90 18 226.0)">Total expected cost ($, illustrative assumptions)</text>
</svg>
